<svg width="40" height="40" viewBox="0 0 40 40" fill="none" xmlns="http://www.w3.org/2000/svg">
<path d="M40 20C40 16.0444 38.827 12.1776 36.6294 8.8886C34.4318 5.59962 31.3082 3.03617 27.6537 1.52242C23.9992 0.00866568 19.9778 -0.387401 16.0982 0.384303C12.2186 1.15601 8.65492 3.06082 5.85788 5.85787C3.06083 8.65492 1.15601 12.2186 0.384304 16.0982C-0.387402 19.9778 0.00866699 23.9992 1.52242 27.6537C3.03617 31.3082 5.59962 34.4318 8.88861 36.6294C12.1776 38.827 16.0444 40 20 40C25.3025 39.9942 30.3862 37.8852 34.1357 34.1357C37.8852 30.3862 39.9942 25.3025 40 20ZM18.822 26.178L10.489 17.845C10.1765 17.5324 10.0009 17.1085 10.0009 16.6665C10.0009 16.2245 10.1765 15.8006 10.489 15.488C10.8016 15.1754 11.2255 14.9999 11.6675 14.9999C12.1095 14.9999 12.5335 15.1754 12.846 15.488L20 22.643L27.155 15.488C27.3098 15.3332 27.4935 15.2105 27.6957 15.1267C27.8979 15.043 28.1146 14.9999 28.3335 14.9999C28.5524 14.9999 28.7691 15.043 28.9713 15.1267C29.1735 15.2105 29.3572 15.3332 29.512 15.488C29.6668 15.6428 29.7895 15.8265 29.8733 16.0287C29.957 16.2309 30.0002 16.4476 30.0002 16.6665C30.0002 16.8854 29.957 17.1021 29.8733 17.3043C29.7895 17.5065 29.6668 17.6902 29.512 17.845L21.179 26.178C21.0244 26.333 20.8407 26.4559 20.6384 26.5398C20.4362 26.6237 20.2194 26.6668 20.0005 26.6668C19.7816 26.6668 19.5648 26.6237 19.3626 26.5398C19.1604 26.4559 18.9767 26.333 18.822 26.178Z" fill="#363537"/>
</svg>
